<svg xmlns="http://www.w3.org/2000/svg" width="32.227" height="32.286" viewBox="0 0 32.227 32.286">
  <g id="Icon_ICON_feather_phone_SIZE_LARGE_STYLE_STYLE1_" data-name="Icon [ICON=feather/phone][SIZE=LARGE][STYLE=STYLE1]" transform="translate(1.176 1.204)">
    <rect id="Area_ICON:feather_phone_SIZE:LARGE_STYLE:STYLE1_" data-name="Area [ICON:feather/phone][SIZE:LARGE][STYLE:STYLE1]" width="30" height="30" transform="translate(0.313 0.204)" fill="#fcfcfc" opacity="0"/>
    <g id="Icon" transform="translate(0.029 0)">
      <path id="f658ab41-add7-4ab1-8bc5-51ffa40a249a" d="M32.358,24.775v4.5a3,3,0,0,1-3.268,3,29.667,29.667,0,0,1-12.938-4.6,29.251,29.251,0,0,1-8.995-8.994,29.669,29.669,0,0,1-4.6-13A3,3,0,0,1,5.539,2.409h4.5a3,3,0,0,1,3,2.578A19.327,19.327,0,0,0,14.083,9.2a3,3,0,0,1-.675,3.163l-1.9,1.9A23.989,23.989,0,0,0,20.5,23.262l1.9-1.9a3,3,0,0,1,3.164-.675,19.168,19.168,0,0,0,4.212,1.049A3,3,0,0,1,32.358,24.775Z" transform="translate(-2.543 -2.409)" fill="none" stroke="#1f1f1f" stroke-linecap="round" stroke-linejoin="round" stroke-width="2.409"/>
    </g>
  </g>
</svg>
